# xmcd CD database file
#
# Track frame offsets:
#	150
#	48075
#	98575
#	146025
#	193277
#	250032
#	278377
#	310825
#
# Disc length: 4395 seconds
#
# Revision: 0
# Processed by: cddbd v1.5.1PL0 Copyright (c) Steve Scherf et al.
# Submitted via: CDex 1.50
#
DISCID=65112908
DTITLE=George Benson - George Benson
DYEAR=1900
DGENRE=Jazz
TTITLE0=There will never be another you
TTITLE1=Li'll darlin'
TTITLE2=Invitation
TTITLE3=Oleo
TTITLE4=All Blues
TTITLE5=All the things you are
TTITLE6=Witchcraft
TTITLE7=Love walked in
EXTD=
EXTT0=
EXTT1=
EXTT2=
EXTT3=
EXTT4=
EXTT5=
EXTT6=
EXTT7=
PLAYORDER=
